<svg width="1510" height="1520" viewBox="0 0 1510 1520" fill="none" xmlns="http://www.w3.org/2000/svg">
<circle cx="755.243" cy="764.223" r="325" fill="#FFD315"/>
<path d="M1276.34 263.682L1040.03 513.242C983.649 513.432 996.872 500.12 1008.41 480.18C1019.95 460.241 1181.92 295.511 1249.75 245.529C1304.01 205.544 1290.09 240.971 1276.34 263.682Z" fill="#FFD315"/>
<path d="M1423.08 501.107L1109.47 641.72C1057.28 620.399 1074.57 613.134 1092.85 599.1C1111.12 585.067 1323.66 494.532 1405.42 474.186C1470.82 457.909 1444.45 485.351 1423.08 501.107Z" fill="#FFD315"/>
<path d="M1475.1 787.306L1131.42 787.284C1092.51 746.47 1111.27 746.919 1133.68 741.591C1156.1 736.263 1387.07 740.624 1470 755.513C1536.34 767.425 1501.04 781.672 1475.1 787.306Z" fill="#FFD315"/>
<path d="M1413.77 1053.1L1095.51 923.363C1074.89 870.885 1092.09 878.38 1114.85 881.906C1137.62 885.432 1349.87 976.647 1421.04 1021.73C1477.98 1057.8 1439.92 1057.67 1413.77 1053.1Z" fill="#FFD315"/>
<path d="M1251.57 1281.17L1004.78 1041.97C1005.25 985.587 1018.41 998.964 1038.21 1010.74C1058.01 1022.51 1220.84 1186.39 1270.03 1254.79C1309.38 1309.51 1274.12 1295.18 1251.57 1281.17Z" fill="#FFD315"/>
<path d="M1020.76 1440.77L878.418 1127.95C899.451 1075.63 906.811 1092.89 920.945 1111.08C935.08 1129.28 1026.79 1341.31 1047.59 1422.96C1064.22 1488.27 1036.64 1462.05 1020.76 1440.77Z" fill="#FFD315"/>
<path d="M464.103 1423.62L592.185 1104.69C644.555 1083.79 637.149 1101.03 633.742 1123.82C630.334 1146.6 540.225 1359.32 495.508 1430.73C459.735 1487.86 459.666 1449.79 464.103 1423.62Z" fill="#FFD315"/>
<path d="M235.361 1264.5L466.445 1010.09C522.814 1008.74 509.871 1022.32 498.745 1042.49C487.619 1062.67 329.102 1230.72 262.327 1282.1C208.907 1323.2 222.091 1287.49 235.361 1264.5Z" fill="#FFD315"/>
<path d="M82.9322 1022.83L399.184 888.27C450.963 910.591 433.528 917.522 414.99 931.202C396.451 944.881 182.212 1031.31 100.077 1050.09C34.3698 1065.1 61.2691 1038.17 82.9322 1022.83Z" fill="#FFD315"/>
<path d="M35.0024 743.487L378.658 738.769C418.121 779.043 399.36 778.852 377.021 784.489C354.682 790.126 123.667 788.951 40.5437 775.207C-25.9552 764.212 9.1416 749.479 35.0024 743.487Z" fill="#FFD315"/>
<path d="M92.0971 478.038L412.66 601.978C434.232 654.074 416.898 646.891 394.07 643.779C371.242 640.667 157.374 553.321 85.3939 509.533C27.81 474.503 65.8694 473.941 92.0971 478.038Z" fill="#FFD315"/>
<path d="M256.403 241.631L500.906 483.167C499.904 539.543 486.875 526.042 467.183 514.082C447.492 502.121 286.227 336.704 237.692 267.836C198.864 212.742 233.988 227.41 256.403 241.631Z" fill="#FFD315"/>
<path d="M486.121 89.1484L631.955 400.362C611.509 452.909 603.956 435.734 589.619 417.699C575.282 399.665 481.209 188.669 459.498 107.262C442.13 42.1361 470.01 68.0505 486.121 89.1484Z" fill="#FFD315"/>
<path d="M775.565 34.9343L774.985 378.622C734.108 417.46 734.587 398.703 729.296 376.28C724.004 353.857 728.739 122.888 743.764 39.986C755.783 -26.3355 769.973 8.98426 775.565 34.9343Z" fill="#FFD315"/>
<path d="M1047.45 102.638L918.395 421.174C865.96 441.908 873.419 424.692 876.897 401.916C880.374 379.141 971.136 166.7 1016.07 95.4309C1052.02 38.4157 1051.97 76.4792 1047.45 102.638Z" fill="#FFD315"/>
<path d="M738.71 1484.55L732.802 1140.91C772.938 1101.31 772.812 1120.07 778.527 1142.39C784.241 1164.71 783.867 1395.73 770.41 1478.9C759.645 1545.44 744.791 1510.39 738.71 1484.55Z" fill="#FFD315"/>
</svg>
